
<svg
    xmlns="http://www.w3.org/2000/svg"
    viewBox="0 0 486 466"
    className="cart"
>
<g>
    <path
       d="m 158.25743,338.66371 c -19.92108,-2.64217 -39.13362,-17.61804 -46.73029,-36.42551 -3.1977,-7.91669 -2.85186,-5.7768 -21.333884,-132.00267 C 76.846008,79.078427 73.381521,57.274076 71.957127,55.463252 70.19898,53.22813 70.194548,53.227723 47.585499,53.227723 35.14826,53.227723 22.686429,52.79421 19.892541,52.264359 -0.09537158,48.476634 1.4574074,23.168907 13.767778,16.210354 c 4.720681,-2.428176 4.720681,-2.428176 31.35764,-2.428176 20.032659,0 30.041867,0.211582 33.768807,0.204768 25.456095,-0.04655 26.301565,8.298621 31.216415,32.112064 0.92465,4.480094 7.75075,41.200409 7.75075,45.338334 0,0.407412 78.81942,0.852164 175.15426,0.988336 175.15426,0.247588 175.15426,0.247588 179.87249,2.675761 6.3579,3.272013 10.15954,8.755669 10.64879,15.360299 0.28224,3.81012 -3.98351,26.71777 -17.66161,94.84519 -9.91853,49.40198 -18.92334,92.19514 -20.01067,95.09592 -7.37812,19.68336 -27.00269,35.26327 -47.82416,37.96751 -6.554,0.85121 -233.48374,1.12884 -239.78306,0.29335 z"
    />
    <circle
       cx="198.60124"
       cy="408.13577"
       r="56.692913" 
    />
    <circle
       cx="363.74203"
       cy="407.85052"
       r="56.692913"
    />
</g>  
</svg>
